<svg width="158.27" height="158.27001" xmlns="http://www.w3.org/2000/svg">

 <g>
  <title>background</title>
  <rect fill="none" id="canvas_background" height="160.27001" width="160.27" y="-1" x="-1"/>
 </g>
 <g>
  <title>Layer 1</title>
  <g id="svg_1">
   <path id="mark" fill="#02b3e4" d="m59.376997,20.074l-39.374,22.753l0,52.08c0,23.935 19.428,43.363 43.363,43.363c7.904,0 15.365,-2.142 21.718,-5.836l31.987,-18.468c12.558,-6.575 21.201,-19.724 21.201,-34.942l0,-54.444l-7.904,-4.58l-31.544,18.173l0,56.66c0,2.438 -0.222,4.802 -0.739,7.166c-0.443,2.29 -1.182,4.506 -2.068,6.649c-0.222,0.517 -0.517,1.108 -0.739,1.625c-0.96,-0.074 -1.921,-0.222 -2.807,-0.443c-1.995,-0.443 -3.989,-1.034 -5.91,-1.847c-1.847,-0.813 -3.694,-1.773 -5.319,-2.881c-1.699,-1.108 -3.25,-2.438 -4.654,-3.841c-1.404,-1.404 -2.733,-3.029 -3.841,-4.654c-1.108,-1.699 -2.142,-3.472 -2.881,-5.319c-0.813,-1.921 -1.404,-3.915 -1.847,-5.91c-0.443,-2.068 -0.665,-4.211 -0.665,-6.353l0,-54.444l-7.977,-4.507zm17.73,107.56c-2.142,0.886 -4.358,1.625 -6.649,2.068c-2.364,0.443 -4.728,0.739 -7.166,0.739s-4.802,-0.222 -7.166,-0.739c-2.29,-0.443 -4.506,-1.182 -6.649,-2.068c-2.068,-0.886 -4.137,-1.995 -5.984,-3.25c-1.847,-1.256 -3.62,-2.733 -5.245,-4.358s-3.029,-3.398 -4.358,-5.245c-1.256,-1.921 -2.364,-3.915 -3.25,-5.984c-0.886,-2.142 -1.625,-4.358 -2.068,-6.649c-0.443,-2.364 -0.739,-4.728 -0.739,-7.166l0,-47.574l31.544,-18.173l0,49.864c0,18.985 13.371,34.794 31.248,38.561c-0.665,0.813 -1.404,1.625 -2.216,2.438c-1.625,1.625 -3.398,3.029 -5.245,4.358c-1.92,1.183 -3.915,2.291 -6.057,3.178zm52.597,-42.255c-0.443,1.995 -1.034,3.989 -1.847,5.91c-0.813,1.847 -1.773,3.694 -2.881,5.319c-1.108,1.699 -2.438,3.25 -3.841,4.654c-1.404,1.404 -3.029,2.733 -4.654,3.841c-1.699,1.108 -3.472,2.142 -5.319,2.881c-1.921,0.813 -3.915,1.404 -5.91,1.847c-0.443,0.074 -0.813,0.148 -1.256,0.222c1.773,-4.728 2.733,-9.825 2.733,-15.218l0,-52.155l23.639,-13.666l0,49.864c-0.073,2.29 -0.295,4.432 -0.664,6.501z"/>
   <path id="wordmark-en" fill="#2d3c49" d="m218.346997,118.697c0,4.728 -3.915,8.569 -9.308,8.569s-9.16,-3.841 -9.16,-8.569l0,-16.917l-2.807,0l0,16.991c0,6.058 4.728,11.007 12.041,11.007s12.115,-4.949 12.115,-11.007l0,-16.991l-2.807,0l-0.074,16.917zm30.214,-16.917l-8.939,0l0,27.702l8.865,0c8.274,0 13.814,-5.097 13.814,-13.888c0.074,-8.643 -5.467,-13.814 -13.74,-13.814zm-0.296,25.191l-5.836,0l0,-22.679l5.836,0c6.722,0 11.229,3.989 11.229,11.302c0.074,7.314 -4.433,11.377 -11.229,11.377zm79.339,0.369c-6.501,0 -11.155,-5.319 -11.155,-11.893c0,-6.501 4.654,-11.45 11.081,-11.45c5.171,0 8.348,3.029 8.348,3.029l1.477,-1.995s-3.324,-3.546 -9.899,-3.546c-7.83,0 -13.814,6.058 -13.814,14.036s5.836,14.405 13.962,14.405c6.796,0 10.49,-4.285 10.49,-4.285l-1.551,-1.921c0,-0.074 -3.398,3.62 -8.939,3.62zm28.441,2.142l2.807,0l0,-27.702l-2.807,0l0,27.702zm19.207,-25.19l9.973,0l0,25.191l2.807,0l0,-25.191l9.973,0l0,-2.512l-22.679,0l0,2.512l-0.074,0zm55.7,-2.512l-8.791,12.706l-0.074,0l-8.865,-12.706l-3.177,0l10.638,15.735l0,11.893l2.807,0l0,-11.893l10.49,-15.735l-3.028,0zm-144.57,0l-11.229,27.702l2.955,0l2.955,-7.387l12.484,-2.586l3.989,9.899l2.955,0l-11.229,-27.702l-2.881,0l0,0.074l0.001,0zm-3.989,17.212l5.467,-13.445l0.074,0l4.654,11.302l-10.195,2.143z"/>
   <line y2="82.497" y1="82.497" x2="433.686997" x1="197.296997" stroke-miterlimit="10" stroke="#7a94a9" id="stroke-cn"/>
   <g id="wordmark-cn" fill="#2d3c49">
    <path id="svg_2" d="m210.216997,29.456c-1.182,3.177 -2.586,6.279 -4.211,9.234l0,26.963l-2.955,0l0,-22.309c-1.108,1.551 -2.216,2.955 -3.398,4.211l-1.699,-2.955c3.767,-3.915 7.313,-9.899 9.456,-16.03l2.807,0.886zm10.194,11.303c-0.739,9.973 -2.955,19.207 -10.342,24.6l-2.216,-2.216c6.87,-4.802 8.939,-13.297 9.603,-22.383l-9.308,0l0,-2.955l9.456,0c0.148,-3.029 0.148,-5.836 0.148,-8.865l2.955,0c0,3.029 -0.074,5.836 -0.222,8.865l14.11,0l0,2.955l-14.184,0l0,-0.001zm10.49,21.275c1.182,0 1.108,-0.96 1.256,-6.279c0.813,0.443 2.216,0.96 2.955,1.33c-0.295,6.058 -0.96,7.683 -3.915,7.683l-4.728,0c-3.177,0 -3.989,-0.96 -3.989,-4.285l0,-15.957l2.955,0l0,15.956c0,1.182 0.222,1.477 1.404,1.477l4.063,0l0,0.075l-0.001,0zm-0.886,-24.969c-1.108,-1.699 -3.472,-3.989 -5.467,-5.91l2.512,-1.699c1.921,1.773 4.285,4.285 5.467,5.91l-2.512,1.699z"/>
    <path id="svg_3" d="m272.936997,58.045c0.813,0.517 1.847,1.33 3.177,2.216c2.659,1.773 5.984,1.995 10.638,1.995c4.802,0 10.564,-0.369 14.405,-0.813c-0.222,0.886 -0.591,2.068 -0.886,2.955c-2.659,0.222 -9.973,0.739 -13.593,0.739c-5.171,0 -8.495,-0.517 -11.302,-2.364c-1.625,-1.108 -2.955,-2.586 -3.841,-2.586c-1.33,0 -3.324,2.512 -5.467,5.467l-2.068,-2.733c2.142,-2.512 4.211,-4.358 5.984,-5.023l0,-10.713l-5.467,0l0,-2.955l8.421,0l-0.001,13.815zm-2.143,-19.576c-0.886,-2.142 -3.029,-5.393 -4.949,-7.83l2.586,-1.256c1.995,2.29 4.137,5.54 5.097,7.609l-2.734,1.477zm26.964,19.206c-2.216,-3.25 -6.501,-8.126 -10.49,-12.263c-1.551,5.393 -4.137,10.121 -9.677,13.075l-2.068,-2.512c6.87,-3.472 9.234,-9.308 10.121,-16.4l-10.047,0l0,-2.955l10.342,0c0.222,-2.512 0.296,-5.245 0.369,-7.978l2.955,0c-0.074,2.659 -0.148,5.467 -0.369,7.978l11.45,0l0,2.955l-11.746,0c-0.074,0.96 -0.296,1.699 -0.443,2.659c4.432,4.358 9.677,10.047 12.189,13.74l-2.586,1.701z"/>
    <path id="svg_4" d="m359.666997,43.344c-2.586,2.364 -6.058,4.654 -9.677,6.279l0,1.699l16.4,0l0,2.955l-16.4,0l0,7.535c0,1.847 -0.517,2.659 -1.995,3.103c-1.477,0.517 -3.62,0.665 -7.313,0.665c-0.296,-0.886 -0.591,-1.995 -0.813,-2.955c3.103,0.148 5.319,0 6.131,-0.074c0.886,-0.074 1.034,-0.222 1.034,-0.813l0,-7.535l-16.4,0l0,-2.955l16.4,0l0,-2.955c2.364,-0.886 4.728,-1.921 6.796,-3.324l-16.547,0l0,-2.955l19.946,0l2.438,1.33zm-25.265,0l-2.955,0l0,-7.978l6.722,0c-0.739,-1.551 -2.068,-3.694 -3.398,-5.245l2.512,-1.256c1.477,1.699 3.103,4.063 3.767,5.614l-1.625,0.886l8.865,0c-0.591,-1.699 -1.847,-4.063 -3.103,-5.91l2.586,-1.256c1.404,1.921 2.881,4.58 3.398,6.279l-2.068,0.886l6.649,0c1.477,-1.847 3.177,-4.654 4.063,-6.575l2.733,1.108c-1.182,1.847 -2.364,3.841 -3.62,5.467l6.501,0l0,7.978l-2.955,0l0,-5.023l-28.219,0l0,5.023l0.147,0l0,0.002z"/>
    <path id="svg_5" d="m408.276997,55.533c-3.841,1.625 -7.83,3.398 -11.007,4.654l-1.034,-2.955c1.33,-0.443 2.881,-1.108 4.654,-1.773l0,-14.257l-3.767,0l0,-2.955l3.767,0l0,-9.308l2.955,0l0,9.308l3.767,0l0,2.955l-3.767,0l0,13.223l3.841,-1.404l0.591,2.512zm24.008,-13.075c-1.33,5.245 -3.177,9.751 -5.614,13.593c0.96,3.915 2.142,6.131 3.546,6.131c0.739,0 1.256,-1.625 1.404,-6.353c0.886,0.517 1.404,0.886 2.068,1.256c-0.443,6.058 -1.256,7.978 -3.915,7.978c-2.29,0 -3.989,-2.364 -5.245,-6.205c-1.921,2.512 -4.285,4.432 -6.87,6.205c-0.369,-0.591 -1.477,-1.699 -2.142,-2.068c3.176,-1.921 5.91,-4.358 8.052,-7.461c-1.034,-4.802 -1.699,-11.229 -1.921,-18.246l-9.53,0l0,5.467l7.978,0l0,1.182c-0.222,9.234 -0.296,12.484 -1.108,13.519c-0.517,0.739 -1.404,1.034 -2.364,1.108c-0.739,0.074 -2.216,0.074 -3.62,0c-0.074,-0.813 -0.296,-1.847 -0.517,-2.659c1.404,0.148 2.364,0.222 2.881,0.222s0.739,-0.074 1.034,-0.443c0.443,-0.591 0.591,-3.25 0.739,-10.564l-4.876,0l0,1.847c0,5.688 -0.665,13.371 -5.023,18.394c-0.443,-0.591 -1.699,-1.551 -2.364,-1.921c4.063,-4.654 4.432,-11.302 4.432,-16.547l0,-12.709l12.189,0c-0.074,-1.995 0,-3.768 0,-5.91l2.955,0c0,2.142 -0.074,3.915 0,5.91l5.467,0c-0.96,-1.33 -2.881,-3.324 -4.58,-4.654l2.068,-1.256c1.773,1.33 3.694,3.25 4.654,4.654l-1.995,1.256l2.807,0l0,2.955l-8.348,0c0.222,5.614 0.665,10.638 1.33,14.627c1.625,-3.029 2.807,-6.279 3.694,-10.047l2.734,0.739z"/>
   </g>
  </g>
 </g>
</svg>